<svg
  width="53"    
  height="10"  
  viewBox="0 0 106 20"
  fill="none"
  xmlns="http://www.w3.org/2000/svg"
>
  <path d="M36.0546 3.25985V16.8847H33.1703V3.25985H36.0546Z" fill="#FE6F39"/>
  <path d="M50.1121 3.25985V16.8847H47.9178L41.6528 8.55801V16.8847H38.7684V3.25985H40.9627L47.2277 11.5721V3.25985H50.1121Z" fill="#FE6F39"/>
  <path d="M55.7102 5.8258V9.05674H61.3859V11.6227H55.7102V16.8775H52.8259V3.25985H61.5565V5.8258H55.7102Z" fill="#FE6F39"/>
  <path d="M66.5499 3.25985V16.8847H63.6655V3.25985H66.5499Z" fill="#FE6F39"/>
  <path d="M80.5996 3.25985V16.8847H78.4053L72.1403 8.55801V16.8847H69.2559V3.25985H71.4502L77.7152 11.5721V3.25985H80.5996Z" fill="#FE6F39"/>
  <path d="M92.3542 14.3115V16.8775H83.3134V3.25985H92.2456V5.8258H86.19V8.72425H91.7261V11.2541H86.19V14.3115H92.3542Z" fill="#FE6F39"/>
  <path d="M102.232 16.8775L99.3945 12.4395L96.5567 16.8775H93.3001L97.7662 9.88797L93.525 3.25262H96.7815L99.3945 7.33647L102.007 3.25262H105.264L101.023 9.86628L105.512 16.8703H102.232V16.8775Z" fill="#FE6F39"/>
  <path d="M17.376 5.97759V20H0V0H4.79953V3.24539H3.33409V16.8919H14.0419V5.97759H17.376Z" fill="#FE6F39"/>
  <path d="M24.4551 0V20H19.6556V16.8919H21.121V3.10806H10.4054V14.0224H7.07136V0H24.4551Z" fill="#FE6F39"/>
</svg>
